<svg width="25" height="23" viewBox="0 0 25 23" fill="none" xmlns="http://www.w3.org/2000/svg">
<path d="M22.9219 13.5358L24.9737 4.19206C25.1218 3.51743 24.6264 2.875 23.9579 2.875H6.91007L6.51224 0.862051C6.41311 0.360318 5.98655 0 5.49171 0H1.04167C0.466363 0 0 0.482686 0 1.07812V1.79688C0 2.39231 0.466363 2.875 1.04167 2.875H4.07478L7.12374 18.3027C6.39432 18.7369 5.90278 19.551 5.90278 20.4844C5.90278 21.8737 6.99098 23 8.33334 23C9.6757 23 10.7639 21.8737 10.7639 20.4844C10.7639 19.7803 10.4841 19.1441 10.0337 18.6875H19.1329C18.6826 19.1441 18.4028 19.7803 18.4028 20.4844C18.4028 21.8737 19.491 23 20.8333 23C22.1757 23 23.2639 21.8737 23.2639 20.4844C23.2639 19.4884 22.7045 18.6277 21.8933 18.2201L22.1327 17.1296C22.2809 16.4549 21.7854 15.8125 21.117 15.8125H9.46689L9.18282 14.375H21.9061C22.3925 14.375 22.8141 14.0267 22.9219 13.5358Z" fill="#DC1C2C"/>
<path d="M22.9219 13.5358L24.9737 4.19206C25.1218 3.51743 24.6264 2.875 23.9579 2.875H6.91007L6.51224 0.862051C6.41311 0.360318 5.98655 0 5.49171 0H1.04167C0.466363 0 0 0.482686 0 1.07812V1.79688C0 2.39231 0.466363 2.875 1.04167 2.875H4.07478L7.12374 18.3027C6.39432 18.7369 5.90278 19.551 5.90278 20.4844C5.90278 21.8737 6.99098 23 8.33334 23C9.6757 23 10.7639 21.8737 10.7639 20.4844C10.7639 19.7803 10.4841 19.1441 10.0337 18.6875H19.1329C18.6826 19.1441 18.4028 19.7803 18.4028 20.4844C18.4028 21.8737 19.491 23 20.8333 23C22.1757 23 23.2639 21.8737 23.2639 20.4844C23.2639 19.4884 22.7045 18.6277 21.8933 18.2201L22.1327 17.1296C22.2809 16.4549 21.7854 15.8125 21.117 15.8125H9.46689L9.18282 14.375H21.9061C22.3925 14.375 22.8141 14.0267 22.9219 13.5358Z" fill="#DC1C2C"/>
</svg>
