<svg width="28" height="36" viewBox="0 0 28 36" fill="none" xmlns="http://www.w3.org/2000/svg">
<path d="M24 12.3333H22.3333V8.99996C22.3333 4.39996 18.6 0.666626 14 0.666626C9.39996 0.666626 5.66663 4.39996 5.66663 8.99996V12.3333H3.99996C2.16663 12.3333 0.666626 13.8333 0.666626 15.6666V32.3333C0.666626 34.1666 2.16663 35.6666 3.99996 35.6666H24C25.8333 35.6666 27.3333 34.1666 27.3333 32.3333V15.6666C27.3333 13.8333 25.8333 12.3333 24 12.3333ZM8.99996 8.99996C8.99996 6.23329 11.2333 3.99996 14 3.99996C16.7666 3.99996 19 6.23329 19 8.99996V12.3333H8.99996V8.99996ZM24 32.3333H3.99996V15.6666H24V32.3333ZM14 27.3333C15.8333 27.3333 17.3333 25.8333 17.3333 24C17.3333 22.1666 15.8333 20.6666 14 20.6666C12.1666 20.6666 10.6666 22.1666 10.6666 24C10.6666 25.8333 12.1666 27.3333 14 27.3333Z" fill="#DC1C2C"/>
</svg>
