<svg width="40" height="40" viewBox="0 0 40 40" fill="none" xmlns="http://www.w3.org/2000/svg">
<g clip-path="url(#clip0_1151_196)">
<path d="M30 13.3333H28.3334V9.99996C28.3334 5.39996 24.6 1.66663 20 1.66663C15.4 1.66663 11.6667 5.39996 11.6667 9.99996V13.3333H10C8.16669 13.3333 6.66669 14.8333 6.66669 16.6666V33.3333C6.66669 35.1666 8.16669 36.6666 10 36.6666H30C31.8334 36.6666 33.3334 35.1666 33.3334 33.3333V16.6666C33.3334 14.8333 31.8334 13.3333 30 13.3333ZM15 9.99996C15 7.23329 17.2334 4.99996 20 4.99996C22.7667 4.99996 25 7.23329 25 9.99996V13.3333H15V9.99996ZM30 33.3333H10V16.6666H30V33.3333ZM20 28.3333C21.8334 28.3333 23.3334 26.8333 23.3334 25C23.3334 23.1666 21.8334 21.6666 20 21.6666C18.1667 21.6666 16.6667 23.1666 16.6667 25C16.6667 26.8333 18.1667 28.3333 20 28.3333Z" fill="#858585"/>
</g>
<defs>
<clipPath id="clip0_1151_196">
<rect width="40" height="40" fill="white"/>
</clipPath>
</defs>
</svg>
