<svg width="30" height="33" viewBox="0 0 30 33" fill="none" xmlns="http://www.w3.org/2000/svg">
<path d="M22.1426 5.34043L29.3379 14.2146C29.7598 14.735 30 15.4504 30 16.1875C30 16.9246 29.7598 17.64 29.3379 18.1604L22.1426 27.0346C21.7676 27.4971 21.2637 27.75 20.7363 27.75C19.6406 27.75 18.75 26.6516 18.75 25.3002V20.8125H11.25C10.2129 20.8125 9.375 19.7791 9.375 18.5V13.875C9.375 12.5959 10.2129 11.5625 11.25 11.5625H18.75V7.0748C18.75 5.72344 19.6406 4.625 20.7363 4.625C21.2637 4.625 21.7676 4.88516 22.1426 5.34043ZM9.375 4.625H5.625C4.58789 4.625 3.75 5.6584 3.75 6.9375V25.4375C3.75 26.7166 4.58789 27.75 5.625 27.75H9.375C10.4121 27.75 11.25 28.7834 11.25 30.0625C11.25 31.3416 10.4121 32.375 9.375 32.375H5.625C2.51953 32.375 0 29.2676 0 25.4375V6.9375C0 3.10742 2.51953 0 5.625 0H9.375C10.4121 0 11.25 1.0334 11.25 2.3125C11.25 3.5916 10.4121 4.625 9.375 4.625Z" fill="#858585"/>
</svg>
