<svg width="414" height="126" viewBox="0 0 414 126" fill="none" xmlns="http://www.w3.org/2000/svg" xmlns:xlink="http://www.w3.org/1999/xlink">
<path d="M0,62.584L0,125.166L26,121.184L52,117.2L52,106.996L52,96.792L40.5,98.228C34.174,99.018 26.944,99.74 24.434,99.834L19.866,100.002L20.434,50L21,0L10.5,0L0,0.002L0,62.584ZM58,58.274L58,116.546L66.5,115.382C71.174,114.742 83.326,113.59 93.5,112.824L112,111.428L112,101.44L112,91.452L95.5,92.796L79,94.138L79.65,78.162L80.298,62.186L92.65,61.594L105,61.002L105,53.002L105,45.002L92,44.426L79,43.85L79.662,31.144C80.304,18.776 80.484,18.406 86.412,17.22C89.76,16.55 96.888,16.002 102.25,16.002L112,16.002L112,8.002L112,0.002L85,0.002L58,0.002L58,58.274ZM116,8.002L116,16.002L126,16.002L136,16.002L136,63.236L136,110.468L140.5,109.262C142.974,108.6 147.474,108.044 150.5,108.03L156,108.002L156,62.002L156,16.002L166,16.002L176,16.002L176,8.002L176,0.002L146,0.002L116,0.002L116,8.002ZM182,54.002L182,108.002L193,108.002L204,108.002L204,85.002L204,62.002L216,62.002L228,62.002L228,53.002L228,44.002L216,44.002L204,44.002L204,30.002L204,16.002L219,16.002L234,16.002L234,8.002L234,0.002L208,0.002L182,0.002L182,54.002ZM242,54.002L242,108.002L251,108.002L260,108.002L260.126,71.502C260.198,50.798 260.954,36.734 261.872,39.002C262.762,41.202 267.802,58.076 273.07,76.502L282.65,110.002L293.326,110.002L304,110.002L304,55.002L304,0.002L294,0.002L284,0.002L283.842,25.502C283.664,54.152 284.19,54.534 272.876,17.502L267.528,0.002L254.764,0.002L242,0.002L242,54.002ZM315.56,55.762L316.12,111.526L322.31,112.764C337.176,115.738 336,120.524 336,57.002L336,0.002L325.5,0L315,0L315.56,55.762ZM354.494,26.972L364.472,53.94L354.906,81.472C349.644,96.614 344.486,110.116 343.444,111.478C341.232,114.368 343.238,115.244 355.182,116.604L363.364,117.536L370.076,96.768C373.766,85.348 377.34,76.002 378.014,76.002C378.688,76.002 382.228,86.302 385.882,98.892L392.524,121.78L402.762,123.454C408.392,124.376 413.298,124.434 413.66,123.584C414.024,122.734 409.734,107.184 404.128,89.03L393.934,56.022L403.652,28.012L413.368,0.002L403.06,0.002L392.752,0.002L387,18.002C383.836,27.902 380.686,36.002 380,36.002C379.314,36.002 376.164,27.902 373,18.002L367.248,0.002L355.88,0.002L344.514,0.002L354.494,26.972Z" clip-rule="evenodd" fill-rule="evenodd" fill="#DC1C2C"/>
</svg>
