<svg width="39" height="29" viewBox="0 0 39 29" fill="none" xmlns="http://www.w3.org/2000/svg">
<path d="M37.1719 0H36.5625V1.51042C36.5625 2.00885 36.1512 2.41667 35.6484 2.41667H32.6016C32.0988 2.41667 31.6875 2.00885 31.6875 1.51042V0H7.3125V1.51042C7.3125 2.00885 6.90117 2.41667 6.39844 2.41667H3.35156C2.84883 2.41667 2.4375 2.00885 2.4375 1.51042V0H1.82812C0.815039 0 0 0.808073 0 1.8125V27.1875C0 28.1919 0.815039 29 1.82812 29H2.4375V27.4896C2.4375 26.9911 2.84883 26.5833 3.35156 26.5833H6.39844C6.90117 26.5833 7.3125 26.9911 7.3125 27.4896V29H31.6875V27.4896C31.6875 26.9911 32.0988 26.5833 32.6016 26.5833H35.6484C36.1512 26.5833 36.5625 26.9911 36.5625 27.4896V29H37.1719C38.185 29 39 28.1919 39 27.1875V1.8125C39 0.808073 38.185 0 37.1719 0ZM7.3125 23.2604C7.3125 23.7589 6.90117 24.1667 6.39844 24.1667H3.35156C2.84883 24.1667 2.4375 23.7589 2.4375 23.2604V20.2396C2.4375 19.7411 2.84883 19.3333 3.35156 19.3333H6.39844C6.90117 19.3333 7.3125 19.7411 7.3125 20.2396V23.2604ZM7.3125 16.0104C7.3125 16.5089 6.90117 16.9167 6.39844 16.9167H3.35156C2.84883 16.9167 2.4375 16.5089 2.4375 16.0104V12.9896C2.4375 12.4911 2.84883 12.0833 3.35156 12.0833H6.39844C6.90117 12.0833 7.3125 12.4911 7.3125 12.9896V16.0104ZM7.3125 8.76042C7.3125 9.25885 6.90117 9.66667 6.39844 9.66667H3.35156C2.84883 9.66667 2.4375 9.25885 2.4375 8.76042V5.73958C2.4375 5.24115 2.84883 4.83333 3.35156 4.83333H6.39844C6.90117 4.83333 7.3125 5.24115 7.3125 5.73958V8.76042ZM28.0312 24.4688C28.0312 24.9672 27.6199 25.375 27.1172 25.375H11.8828C11.3801 25.375 10.9688 24.9672 10.9688 24.4688V17.2188C10.9688 16.7203 11.3801 16.3125 11.8828 16.3125H27.1172C27.6199 16.3125 28.0312 16.7203 28.0312 17.2188V24.4688ZM28.0312 11.7812C28.0312 12.2797 27.6199 12.6875 27.1172 12.6875H11.8828C11.3801 12.6875 10.9688 12.2797 10.9688 11.7812V4.53125C10.9688 4.03281 11.3801 3.625 11.8828 3.625H27.1172C27.6199 3.625 28.0312 4.03281 28.0312 4.53125V11.7812ZM36.5625 23.2604C36.5625 23.7589 36.1512 24.1667 35.6484 24.1667H32.6016C32.0988 24.1667 31.6875 23.7589 31.6875 23.2604V20.2396C31.6875 19.7411 32.0988 19.3333 32.6016 19.3333H35.6484C36.1512 19.3333 36.5625 19.7411 36.5625 20.2396V23.2604ZM36.5625 16.0104C36.5625 16.5089 36.1512 16.9167 35.6484 16.9167H32.6016C32.0988 16.9167 31.6875 16.5089 31.6875 16.0104V12.9896C31.6875 12.4911 32.0988 12.0833 32.6016 12.0833H35.6484C36.1512 12.0833 36.5625 12.4911 36.5625 12.9896V16.0104ZM36.5625 8.76042C36.5625 9.25885 36.1512 9.66667 35.6484 9.66667H32.6016C32.0988 9.66667 31.6875 9.25885 31.6875 8.76042V5.73958C31.6875 5.24115 32.0988 4.83333 32.6016 4.83333H35.6484C36.1512 4.83333 36.5625 5.24115 36.5625 5.73958V8.76042Z" fill="#DC1C2C"/>
</svg>
