
<svg width="59" height="68" viewBox="0 0 59 68" fill="none" xmlns="http://www.w3.org/2000/svg">
<rect x="1" y="1" width="57" height="66" rx="11" fill="white"/>
<rect x="1" y="1" width="57" height="66" rx="11" stroke="#DC1C2C" stroke-width="2"/>
<path d="M49 15.625H37.75L36.8688 14.091C36.6821 13.7631 36.3945 13.4872 36.0384 13.2945C35.6823 13.1017 35.2718 12.9998 34.8531 13H24.1375C23.7197 12.9986 23.31 13.1002 22.9551 13.2932C22.6003 13.4861 22.3148 13.7626 22.1312 14.091L21.25 15.625H10C9.60218 15.625 9.22064 15.7633 8.93934 16.0094C8.65804 16.2556 8.5 16.5894 8.5 16.9375V19.5625C8.5 19.9106 8.65804 20.2444 8.93934 20.4906C9.22064 20.7367 9.60218 20.875 10 20.875H49C49.3978 20.875 49.7794 20.7367 50.0607 20.4906C50.342 20.2444 50.5 19.9106 50.5 19.5625V16.9375C50.5 16.5894 50.342 16.2556 50.0607 16.0094C49.7794 15.7633 49.3978 15.625 49 15.625ZM13.4875 51.3086C13.559 52.3082 14.0633 53.2465 14.8976 53.9323C15.7318 54.618 16.8334 54.9999 17.9781 55H41.0219C42.1666 54.9999 43.2682 54.618 44.1024 53.9323C44.9367 53.2465 45.441 52.3082 45.5125 51.3086L47.5 23.5H11.5L13.4875 51.3086Z" fill="#DC1C2C"/>
</svg>
