<svg width="33" height="33" viewBox="0 0 33 33" fill="none" xmlns="http://www.w3.org/2000/svg">
<path d="M16.5 0C7.38508 0 0 7.38508 0 16.5C0 25.6149 7.38508 33 16.5 33C25.6149 33 33 25.6149 33 16.5C33 7.38508 25.6149 0 16.5 0ZM16.5 6.3871C19.7335 6.3871 22.3548 9.00847 22.3548 12.2419C22.3548 15.4754 19.7335 18.0968 16.5 18.0968C13.2665 18.0968 10.6452 15.4754 10.6452 12.2419C10.6452 9.00847 13.2665 6.3871 16.5 6.3871ZM16.5 29.2742C12.5946 29.2742 9.09496 27.5044 6.75302 24.7367C8.00383 22.3815 10.4522 20.7581 13.3065 20.7581C13.4661 20.7581 13.6258 20.7847 13.7788 20.8313C14.6438 21.1107 15.5486 21.2903 16.5 21.2903C17.4514 21.2903 18.3629 21.1107 19.2212 20.8313C19.3742 20.7847 19.5339 20.7581 19.6936 20.7581C22.5478 20.7581 24.9962 22.3815 26.247 24.7367C23.905 27.5044 20.4054 29.2742 16.5 29.2742Z" fill="#DC1C2C"/>
</svg>
